<svg xmlns="http://www.w3.org/2000/svg" width="120" height="160" viewBox="0 0 120 160"><path d="M120.987,44.053H104.32V7.117a6.672,6.672,0,0,0-13.333,0V44.053H37.653V7.117a6.672,6.672,0,0,0-13.333,0V44.053H7.653c-1.843,0-3.333,2.9-3.333,4.663v16c0,19.2,33.333,41.487,33.333,72.32v10.347H50.987V160.72H77.653V147.387H90.987V137.04c0-30.833,33.333-53.127,33.333-72.32v-16c0-1.767-1.49-4.663-3.333-4.663M60.677,98.68a.958.958,0,0,0-.987-1.293H46.74c-.767,0-.983-.433-.5-1,0,0,26.683-33.863,27.2-34.517.393-.62.827-.4.69.31-.207.9-5.9,24.007-5.9,24.007-.277.68.123,1.2.88,1.2H82.07c.763,0,1.007.513.54,1.093,0,0-26.723,34.673-27.2,35.253s-.93.4-.687-.583l5.957-24.47" transform="translate(-4.32 -0.72)" fill="#fff" opacity="0.3"/></svg>